<?xml version="1.0" encoding="utf-8"?>
<!-- Generator: Adobe Illustrator 23.1.0, SVG Export Plug-In . SVG Version: 6.00 Build 0)  -->
<svg version="1.1" xmlns="http://www.w3.org/2000/svg" xmlns:xlink="http://www.w3.org/1999/xlink" x="0px" y="0px"
	 viewBox="0 0 256 256" style="enable-background:new 0 0 256 256;" xml:space="preserve">
<style type="text/css">
	.st0{opacity:0.5;fill-rule:evenodd;clip-rule:evenodd;fill:#CFD4D7;enable-background:new    ;}
	.st1{fill-rule:evenodd;clip-rule:evenodd;fill:#EA5E5E;}
	.st2{fill-rule:evenodd;clip-rule:evenodd;fill:#F7B93E;}
	.st3{fill-rule:evenodd;clip-rule:evenodd;fill:#56B3B4;}
	.st4{fill-rule:evenodd;clip-rule:evenodd;fill:#BF85BF;}
	.st5{fill:#FFDA44;}
</style>
<g id="Layer_1">
	<title>prettier-icon-light</title>
	<desc>Created with sketchtool.</desc>
	<g id="key">
		<g id="prettier-icon-light">
			<g>
				<g id="line-11" transform="translate(0.000000, 200.000000)">
					<path id="line-11-dash-3" class="st0" d="M189,43.8h61c3.4,0,6.1,2.7,6.1,6.1l0,0c0,3.4-2.7,6.1-6.1,6.1h-61
						c-3.4,0-6.1-2.7-6.1-6.1l0,0C182.9,46.5,185.6,43.8,189,43.8z"/>
					<path id="line-11-dash-2" class="st0" d="M91.4,43.8h73.1c3.4,0,6.1,2.7,6.1,6.1l0,0c0,3.4-2.7,6.1-6.1,6.1H91.4
						c-3.4,0-6.1-2.7-6.1-6.1l0,0C85.3,46.5,88.1,43.8,91.4,43.8z"/>
					<path id="line-11-dash-1" class="st1" d="M6.1,43.8h61c3.4,0,6.1,2.7,6.1,6.1l0,0c0,3.4-2.7,6.1-6.1,6.1h-61
						C2.7,56,0,53.3,0,49.9l0,0C0,46.5,2.7,43.8,6.1,43.8z"/>
				</g>
				<g id="line-10" transform="translate(0.000000, 180.000000)">
					<path id="line-10-dash-5" class="st0" d="M201.1,39.4h48.8c3.4,0,6.1,2.7,6.1,6.1l0,0c0,3.4-2.7,6.1-6.1,6.1h-48.8
						c-3.4,0-6.1-2.7-6.1-6.1l0,0C195,42.2,197.8,39.4,201.1,39.4z"/>
					<path id="line-10-dash-4" class="st0" d="M164.6,39.4h12.2c3.4,0,6.1,2.7,6.1,6.1l0,0c0,3.4-2.7,6.1-6.1,6.1h-12.2
						c-3.4,0-6.1-2.7-6.1-6.1l0,0C158.5,42.2,161.2,39.4,164.6,39.4z"/>
					<path id="line-10-dash-3" class="st0" d="M91.4,39.4h48.8c3.4,0,6.1,2.7,6.1,6.1l0,0c0,3.4-2.7,6.1-6.1,6.1H91.4
						c-3.4,0-6.1-2.7-6.1-6.1l0,0C85.3,42.2,88.1,39.4,91.4,39.4z"/>
					<path id="line-10-dash-2" class="st2" d="M54.9,39.4H67c3.4,0,6.1,2.7,6.1,6.1l0,0c0,3.4-2.7,6.1-6.1,6.1H54.9
						c-3.4,0-6.1-2.7-6.1-6.1l0,0C48.8,42.2,51.5,39.4,54.9,39.4z"/>
					<path id="line-10-dash-1" class="st3" d="M6.1,39.4h24.4c3.4,0,6.1,2.7,6.1,6.1l0,0c0,3.4-2.7,6.1-6.1,6.1H6.1
						c-3.4,0-6.1-2.7-6.1-6.1l0,0C0,42.2,2.7,39.4,6.1,39.4z"/>
				</g>
				<g id="line-9" transform="translate(0.000000, 160.000000)">
					<path id="line-9-dash-3" class="st0" d="M140.2,35h109.7c3.4,0,6.1,2.7,6.1,6.1l0,0c0,3.4-2.7,6.1-6.1,6.1H140.2
						c-3.4,0-6.1-2.7-6.1-6.1l0,0C134.1,37.8,136.8,35,140.2,35z"/>
					<path id="line-9-dash-2" class="st0" d="M91.4,35h24.4c3.4,0,6.1,2.7,6.1,6.1l0,0c0,3.4-2.7,6.1-6.1,6.1H91.4
						c-3.4,0-6.1-2.7-6.1-6.1l0,0C85.3,37.8,88.1,35,91.4,35z"/>
					<path id="line-9-dash-1" class="st4" d="M6.1,35h61c3.4,0,6.1,2.7,6.1,6.1l0,0c0,3.4-2.7,6.1-6.1,6.1h-61
						c-3.4,0-6.1-2.7-6.1-6.1l0,0C0,37.8,2.7,35,6.1,35z"/>
				</g>
				<g id="line-8" transform="translate(0.000000, 140.000000)">
					<path id="line-8-dash-4" class="st0" d="M225.5,30.7h24.4c3.4,0,6.1,2.7,6.1,6.1l0,0c0,3.4-2.7,6.1-6.1,6.1h-24.4
						c-3.4,0-6.1-2.7-6.1-6.1l0,0C219.4,33.4,222.2,30.7,225.5,30.7z"/>
					<path id="line-8-dash-3" class="st0" d="M176.8,30.7h24.4c3.4,0,6.1,2.7,6.1,6.1l0,0c0,3.4-2.7,6.1-6.1,6.1h-24.4
						c-3.4,0-6.1-2.7-6.1-6.1l0,0C170.7,33.4,173.4,30.7,176.8,30.7z"/>
					<path id="line-8-dash-2" class="st2" d="M42.7,30.7h109.7c3.4,0,6.1,2.7,6.1,6.1l0,0c0,3.4-2.7,6.1-6.1,6.1H42.7
						c-3.4,0-6.1-2.7-6.1-6.1l0,0C36.6,33.4,39.3,30.7,42.7,30.7z"/>
					<path id="line-8-dash-1" class="st4" d="M6.1,30.7h12.2c3.4,0,6.1,2.7,6.1,6.1l0,0c0,3.4-2.7,6.1-6.1,6.1H6.1
						c-3.4,0-6.1-2.7-6.1-6.1l0,0C0,33.4,2.7,30.7,6.1,30.7z"/>
				</g>
				<g id="line-7" transform="translate(0.000000, 120.000000)">
					<path id="line-7-dash-4" class="st0" d="M213.3,26.3h36.6c3.4,0,6.1,2.7,6.1,6.1l0,0c0,3.4-2.7,6.1-6.1,6.1h-36.6
						c-3.4,0-6.1-2.7-6.1-6.1l0,0C207.2,29,210,26.3,213.3,26.3z"/>
					<path id="line-7-dash-3" class="st4" d="M152.4,26.3H189c3.4,0,6.1,2.7,6.1,6.1l0,0c0,3.4-2.7,6.1-6.1,6.1h-36.6
						c-3.4,0-6.1-2.7-6.1-6.1l0,0C146.3,29,149,26.3,152.4,26.3z"/>
					<path id="line-7-dash-2" class="st1" d="M79.2,26.3H128c3.4,0,6.1,2.7,6.1,6.1l0,0c0,3.4-2.7,6.1-6.1,6.1H79.2
						c-3.4,0-6.1-2.7-6.1-6.1l0,0C73.1,29,75.9,26.3,79.2,26.3z"/>
					<path id="line-7-dash-1" class="st3" d="M6.1,26.3h48.8c3.4,0,6.1,2.7,6.1,6.1l0,0c0,3.4-2.7,6.1-6.1,6.1H6.1
						c-3.4,0-6.1-2.7-6.1-6.1l0,0C0,29,2.7,26.3,6.1,26.3z"/>
				</g>
				<g id="line-6" transform="translate(0.000000, 100.000000)">
					<path id="line-6-dash-4" class="st0" d="M225.5,21.9h24.4c3.4,0,6.1,2.7,6.1,6.1l0,0c0,3.4-2.7,6.1-6.1,6.1h-24.4
						c-3.4,0-6.1-2.7-6.1-6.1l0,0C219.4,24.6,222.2,21.9,225.5,21.9z"/>
					<path id="line-6-dash-3" class="st3" d="M103.6,21.9h97.5c3.4,0,6.1,2.7,6.1,6.1l0,0c0,3.4-2.7,6.1-6.1,6.1h-97.5
						c-3.4,0-6.1-2.7-6.1-6.1l0,0C97.5,24.6,100.3,21.9,103.6,21.9z"/>
					<path id="line-6-dash-2" class="st2" d="M42.7,21.9h36.6c3.4,0,6.1,2.7,6.1,6.1l0,0c0,3.4-2.7,6.1-6.1,6.1H42.7
						c-3.4,0-6.1-2.7-6.1-6.1l0,0C36.6,24.6,39.3,21.9,42.7,21.9z"/>
					<path id="line-6-dash-1" class="st1" d="M6.1,21.9h12.2c3.4,0,6.1,2.7,6.1,6.1l0,0c0,3.4-2.7,6.1-6.1,6.1H6.1
						C2.7,34.1,0,31.4,0,28l0,0C0,24.6,2.7,21.9,6.1,21.9z"/>
				</g>
				<g id="line-5" transform="translate(0.000000, 80.000000)">
					<path id="line-5-dash-4" class="st0" d="M237.7,17.5h12.2c3.4,0,6.1,2.7,6.1,6.1l0,0c0,3.4-2.7,6.1-6.1,6.1h-12.2
						c-3.4,0-6.1-2.7-6.1-6.1l0,0C231.6,20.3,234.3,17.5,237.7,17.5z"/>
					<path id="line-5-dash-3" class="st2" d="M152.4,17.5h61c3.4,0,6.1,2.7,6.1,6.1l0,0c0,3.4-2.7,6.1-6.1,6.1h-61
						c-3.4,0-6.1-2.7-6.1-6.1l0,0C146.3,20.3,149,17.5,152.4,17.5z"/>
					<path id="line-5-dash-2" class="st0" d="M91.4,17.5H128c3.4,0,6.1,2.7,6.1,6.1l0,0c0,3.4-2.7,6.1-6.1,6.1H91.4
						c-3.4,0-6.1-2.7-6.1-6.1l0,0C85.3,20.3,88.1,17.5,91.4,17.5z"/>
					<path id="line-5-dash-1" class="st4" d="M6.1,17.5h61c3.4,0,6.1,2.7,6.1,6.1l0,0c0,3.4-2.7,6.1-6.1,6.1h-61
						C2.7,29.7,0,27,0,23.6l0,0C0,20.3,2.7,17.5,6.1,17.5z"/>
				</g>
				<g id="line-4" transform="translate(0.000000, 60.000000)">
					<path id="line-4-dash-5" class="st0" d="M237.7,13.1h12.2c3.4,0,6.1,2.7,6.1,6.1l0,0c0,3.4-2.7,6.1-6.1,6.1h-12.2
						c-3.4,0-6.1-2.7-6.1-6.1l0,0C231.6,15.9,234.3,13.1,237.7,13.1z"/>
					<path id="line-4-dash-4" class="st1" d="M152.4,13.1h61c3.4,0,6.1,2.7,6.1,6.1l0,0c0,3.4-2.7,6.1-6.1,6.1h-61
						c-3.4,0-6.1-2.7-6.1-6.1l0,0C146.3,15.9,149,13.1,152.4,13.1z"/>
					<path id="line-4-dash-3" class="st0" d="M91.4,13.1H128c3.4,0,6.1,2.7,6.1,6.1l0,0c0,3.4-2.7,6.1-6.1,6.1H91.4
						c-3.4,0-6.1-2.7-6.1-6.1l0,0C85.3,15.9,88.1,13.1,91.4,13.1z"/>
					<path id="line-4-dash-2" class="st3" d="M54.9,13.1H67c3.4,0,6.1,2.7,6.1,6.1l0,0c0,3.4-2.7,6.1-6.1,6.1H54.9
						c-3.4,0-6.1-2.7-6.1-6.1l0,0C48.8,15.9,51.5,13.1,54.9,13.1z"/>
					<path id="line-4-dash-1" class="st2" d="M6.1,13.1h24.4c3.4,0,6.1,2.7,6.1,6.1l0,0c0,3.4-2.7,6.1-6.1,6.1H6.1
						c-3.4,0-6.1-2.7-6.1-6.1l0,0C0,15.9,2.7,13.1,6.1,13.1z"/>
				</g>
				<g id="line-3" transform="translate(0.000000, 40.000000)">
					<path id="line-3-dash-4" class="st0" d="M225.5,8.8h24.4c3.4,0,6.1,2.7,6.1,6.1l0,0c0,3.4-2.7,6.1-6.1,6.1h-24.4
						c-3.4,0-6.1-2.7-6.1-6.1l0,0C219.4,11.5,222.2,8.8,225.5,8.8z"/>
					<path id="line-3-dash-3" class="st3" d="M189,8.8h12.2c3.4,0,6.1,2.7,6.1,6.1l0,0c0,3.4-2.7,6.1-6.1,6.1H189
						c-3.4,0-6.1-2.7-6.1-6.1l0,0C182.9,11.5,185.6,8.8,189,8.8z"/>
					<path id="line-3-dash-2" class="st4" d="M115.8,8.8h48.8c3.4,0,6.1,2.7,6.1,6.1l0,0c0,3.4-2.7,6.1-6.1,6.1h-48.8
						c-3.4,0-6.1-2.7-6.1-6.1l0,0C109.7,11.5,112.4,8.8,115.8,8.8z"/>
					<path id="line-3-dash-1" class="st3" d="M6.1,8.8h85.3c3.4,0,6.1,2.7,6.1,6.1l0,0c0,3.4-2.7,6.1-6.1,6.1H6.1
						C2.7,21,0,18.2,0,14.9l0,0C0,11.5,2.7,8.8,6.1,8.8z"/>
				</g>
				<g id="line-2" transform="translate(0.000000, 20.000000)">
					<path id="line-2-dash-3" class="st0" d="M213.3,4.4h36.6c3.4,0,6.1,2.7,6.1,6.1l0,0c0,3.4-2.7,6.1-6.1,6.1h-36.6
						c-3.4,0-6.1-2.7-6.1-6.1l0,0C207.2,7.1,210,4.4,213.3,4.4z"/>
					<path id="line-2-dash-2" class="st2" d="M67,4.4H189c3.4,0,6.1,2.7,6.1,6.1l0,0c0,3.4-2.7,6.1-6.1,6.1H67
						c-3.4,0-6.1-2.7-6.1-6.1l0,0C61,7.1,63.7,4.4,67,4.4z"/>
					<path id="line-2-dash-1" class="st1" d="M6.1,4.4h36.6c3.4,0,6.1,2.7,6.1,6.1l0,0c0,3.4-2.7,6.1-6.1,6.1H6.1
						c-3.4,0-6.1-2.7-6.1-6.1l0,0C0,7.1,2.7,4.4,6.1,4.4z"/>
				</g>
				<g id="line-1">
					<path id="line-1-dash-2" class="st0" d="M176.8,0h73.1c3.4,0,6.1,2.7,6.1,6.1l0,0c0,3.4-2.7,6.1-6.1,6.1h-73.1
						c-3.4,0-6.1-2.7-6.1-6.1l0,0C170.7,2.7,173.4,0,176.8,0z"/>
					<path id="line-1-dash-1" class="st3" d="M6.1,0h146.3c3.4,0,6.1,2.7,6.1,6.1l0,0c0,3.4-2.7,6.1-6.1,6.1H6.1
						C2.7,12.2,0,9.5,0,6.1l0,0C0,2.7,2.7,0,6.1,0z"/>
				</g>
			</g>
		</g>
	</g>
</g>
<g id="Layer_2">
	<path class="st5" d="M158,188.6c10.9,3.8,22.4,5.7,34,5.5c11.6,0.2,23.1-1.6,34-5.5c8.5-3.3,11.5-7,11.5-9.1v-16.3
		c-3,2-6.2,3.6-9.5,4.9c-11.5,4.1-23.8,6.2-36,6c-12.3,0.2-24.5-1.8-36-5.9c-3.4-1.3-6.5-2.9-9.5-4.9v16.2
		C146.5,181.6,149.5,185.3,158,188.6z"/>
	<path class="st5" d="M158,219.3c3.9,1.5,7.8,2.6,11.9,3.4c7.3,1.4,14.7,2.1,22.1,2.1c7.4,0,14.8-0.7,22.1-2.1
		c4.1-0.8,8-1.9,11.9-3.4c8.5-3.3,11.5-7,11.5-9.1v-15.5c-2.5,1.5-5.1,2.7-7.7,3.8c-12.1,4.3-24.9,6.4-37.8,6.1
		c-12.9,0.2-25.7-1.9-37.8-6.2c-2.7-1-5.3-2.3-7.7-3.8v15.5C146.5,212.2,149.5,215.9,158,219.3z"/>
	<path class="st5" d="M192,256c25.1,0,45.5-8,45.5-17.8v-13c-2.2,1.4-4.6,2.5-7,3.5l-0.7,0.3c-12.1,4.3-24.9,6.4-37.8,6.2
		c-12.9,0.2-25.7-1.9-37.8-6.2c-0.2-0.1-0.5-0.2-0.7-0.3c-2.4-1-4.8-2.1-7-3.5v13C146.5,248,166.9,256,192,256z"/>
	<ellipse class="st5" cx="192" cy="145.8" rx="45.5" ry="17.8"/>
</g>
</svg>
